<?xml version="1.0" encoding="UTF-8" standalone="no"?>
<svg width="2927px" height="2926px" viewBox="0 0 2927 2926" version="1.1" xmlns="http://www.w3.org/2000/svg" xmlns:xlink="http://www.w3.org/1999/xlink">
    <!-- Generator: Sketch 3.8.3 (29802) - http://www.bohemiancoding.com/sketch -->
    <title>Novvum_New</title>
    <desc>Created with Sketch.</desc>
    <defs>
        <ellipse id="path-1" cx="1463.02405" cy="1463.00294" rx="1463.02405" ry="1463.00294"></ellipse>
    </defs>
    <g id="Logo" stroke="none" stroke-width="1" fill="none" fill-rule="evenodd">
        <g id="Novvum_New">
            <mask id="mask-2" fill="white">
                <use xlink:href="#path-1"></use>
            </mask>
            <use id="Oval-14" fill="#4074A7" xlink:href="#path-1"></use>
            <polygon id="Rectangle-1" fill-opacity="0.212664176" fill="#000000" mask="url(#mask-2)" transform="translate(1162.298853, 1359.218076) rotate(-37.000000) translate(-1162.298853, -1359.218076) " points="1599.32134 1654.45742 2772.92921 1652.32234 1600.81413 2062.14619 -448.331506 2062.9199 -448.331506 655.516257 1763.18364 655.516257 1936.91313 807.510849"></polygon>
            <path d="M657,2623 C657,2623 921.706815,987.995683 1065.44546,648.462806 C1149.0559,450.962053 1253.4162,368.872478 1469.62146,378.799598 C1656.05475,387.35973 1730.14368,503.677025 1752.82929,668.417409 C1811.17864,1092.14396 1839.64174,1500.17693 1839.64174,1500.17693 L2626.64641,622.782409 L2048.84551,1513.03617 C2048.84551,1513.03617 1906.53002,1752.71988 1771.3303,1717.05266 C1616.11729,1676.10571 1579.70521,1502.80606 1577.78123,1494.47018 C1537.9329,1321.8218 1568.49243,762.153809 1432.61943,758.317838 C1280.34185,754.018732 1175.02839,1124.97684 1175.02839,1124.97684 L657,2623 Z" id="Line" fill="#FFFFFF" mask="url(#mask-2)"></path>
        </g>
    </g>
</svg>