<?xml version="1.0" encoding="UTF-8" standalone="no"?>
<svg width="678px" height="899px" viewBox="0 0 678 899" version="1.1" xmlns="http://www.w3.org/2000/svg" xmlns:xlink="http://www.w3.org/1999/xlink">
    <!-- Generator: Sketch 39.1 (31720) - http://www.bohemiancoding.com/sketch -->
    <title>Rohit</title>
    <desc>Created with Sketch.</desc>
    <defs>
        <rect id="path-1" x="0" y="0" width="678" height="899"></rect>
        <path d="M399.043883,0 L667.023995,128.141743 C681.970903,135.289001 700.218515,153.023739 707.791975,167.774424 L807,361 L0,357 L90.9796009,168.114975 C98.1705688,153.185626 116.116126,135.289354 131.063772,128.141743 L399.043883,0 Z" id="path-3"></path>
    </defs>
    <g id="Page-1" stroke="none" stroke-width="1" fill="none" fill-rule="evenodd">
        <g id="Rohit">
            <mask id="mask-2" fill="white">
                <use xlink:href="#path-1"></use>
            </mask>
            <use id="Rectangle" fill="#2C8B88" xlink:href="#path-1"></use>
            <text id="ravikoti" mask="url(#mask-2)" font-family="Ailerons" font-size="150" font-weight="normal" letter-spacing="26.0416679" fill="#FFFFFF">
                <tspan x="43.2833282" y="308">ravikoti</tspan>
            </text>
            <path d="M214,473 C202,400 208,341 250,318 C276.621187,303.421731 294.187824,272.751369 342.106383,270.83291 C383.957108,269.157381 418.957447,275.855036 455,330 C472.646286,356.509152 474,392 474,392 L470.503546,423.795575 L459.30682,498.080584 C458.647576,502.454357 454.538304,506 450.121177,506 L227.949102,506 C223.535255,506 219.28156,502.476905 218.462361,498.136062 C218.462361,498.136062 216.503216,488.227896 214,473 Z" id="Hair" fill="#000000" mask="url(#mask-2)"></path>
            <text id="rohit" mask="url(#mask-2)" font-family="Ailerons" font-size="200" font-weight="normal" letter-spacing="34.7222214" fill="#FFFFFF">
                <tspan x="80.3944466" y="162">rohit</tspan>
            </text>
            <g id="Body" mask="url(#mask-2)">
                <g transform="translate(-60.000000, 624.000000)">
                    <mask id="mask-4" fill="white">
                        <use xlink:href="#path-3"></use>
                    </mask>
                    <use id="Shirt" stroke="none" fill="#FFFFFF" fill-rule="evenodd" xlink:href="#path-3"></use>
                </g>
            </g>
            <polygon id="Neck" fill="#CDAA89" mask="url(#mask-2)" points="252 560 426 560 426 666.377591 339 779 252 666.377591"></polygon>
            <path d="M295.708249,447.890404 C320.371041,418.119407 360.256996,418.197413 384.795958,448.064554 L412.073065,481.264377 C423.645838,495.349963 434.369697,521.488784 436.024657,539.638101 L437.461073,555.390738 L433.081826,623.093369 L417.066293,674.69045 L340.364184,663.662745 L256.568238,676.695487 L245.340274,623.093369 L258,589.308564 L249.759997,542.811404 C246.578838,524.860581 253.42627,498.929907 265.0582,484.888749 L295.708249,447.890404 Z" id="Face-Shadow" fill="#AF9276" mask="url(#mask-2)" transform="translate(341.400674, 551.154282) scale(1, -1) translate(-341.400674, -551.154282) "></path>
            <path d="M289.444763,368.572454 C316.813364,341.272615 361.48134,340.984685 389.075551,368.063917 C389.075551,368.063917 416.866465,394.422589 418,397.943237 C441,437.443237 448.367188,486.444707 448.367188,486.444707 C448.367188,486.444707 479.367187,513.367026 474.367188,536.4433 C469.367187,563.365619 443.428537,551.378019 443.428537,551.378019 L440.525545,574.176568 C439.130725,585.130739 433.609619,601.80984 427.400554,610.941141 C427.400554,610.941141 408,657.443237 340,659.443237 C272,661.443237 250.729676,622.811218 250.729676,622.811218 C243.69927,614.323716 237.000795,598.544053 235.767316,587.558366 L231.704969,551.378019 C231.704969,551.378019 206.367188,562.404108 202.367188,536.4433 C198.367187,506.636446 228.367187,486.444707 228.367187,486.444707 L254.952709,412.064419 C257.740251,404.265506 264.749199,393.205971 270.613274,387.356628 L289.444763,368.572454 Z" id="Face" fill="#CDAA89" mask="url(#mask-2)" transform="translate(338.456483, 503.721619) scale(1, -1) translate(-338.456483, -503.721619) "></path>
            <path d="M228,512 C230.391192,512 232.289854,498.794648 232.289854,498.794648 L231,492 L233,484 C233,484 227.970563,470 223,470 C218.029437,470 216,476.611159 216,486 C216,495.388841 223.029437,512 228,512 Z" id="Left-Ear-Shadow" fill="#AF9276" mask="url(#mask-2)" transform="translate(224.500000, 491.000000) rotate(-5.000000) translate(-224.500000, -491.000000) "></path>
            <path d="M458.797926,511.660912 C461.189118,511.660912 463.087779,498.45556 463.087779,498.45556 L461.797926,491.660912 L463.797926,483.660912 C463.797926,483.660912 458.768488,469.660912 453.797926,469.660912 C448.827363,469.660912 446.797926,476.272072 446.797926,485.660912 C446.797926,495.049753 453.827363,511.660912 458.797926,511.660912 Z" id="Right-Ear-Shadow" fill="#AF9276" mask="url(#mask-2)" transform="translate(455.297926, 490.660912) scale(-1, 1) rotate(-5.000000) translate(-455.297926, -490.660912) "></path>
            <g id="Bang" mask="url(#mask-2)" fill="#000000">
                <g transform="translate(218.000000, 338.000000)" id="Triangle">
                    <path d="M181,35 C183.260848,26.5400533 172,16 172,16 C172,16 211,40 211,51 C211,60.6603564 184,69 184,69 C184,69 178.094181,45.8733866 181,35 Z" transform="translate(191.500000, 42.500000) scale(1, -1) translate(-191.500000, -42.500000) "></path>
                    <path d="M168,39 C181,20 169,-9.9475983e-14 169,-9.9475983e-14 C169,-9.9475983e-14 180,8 185,23 C190,38 184,59 184,59 L136,66 C136,66 155,58 168,39 Z" transform="translate(161.494810, 33.000000) scale(1, -1) translate(-161.494810, -33.000000) "></path>
                    <path d="M1,68 C2.680643,56.3647792 23,13 23,13 L18,36 L23,23 L20,42 L24,33 L22,68 L25,60 L24.5424965,74.2620976 C24.5424965,74.2620976 26.7634693,68.0486214 27,70 C31,103 41,98 38,112 C30.1222423,148.762869 73,163 73,163 L7,126 C7,126 -1.65269033,86.3647792 1,68 Z" transform="translate(36.747282, 88.000000) scale(1, -1) translate(-36.747282, -88.000000) "></path>
                    <path d="M168.505435,71 C170.186078,59.3647792 190.505435,16 190.505435,16 L185.505435,39 L190.505435,26 L187.505435,45 L191.505435,36 L189.505435,71 L192.505435,63 L192.047932,77.2620976 C192.047932,77.2620976 194.268904,71.0486214 194.505435,73 C198.505435,106 208.505435,101 205.505435,115 C197.627677,151.762869 240.505435,166 240.505435,166 L174.505435,129 C174.505435,129 165.852745,89.3647792 168.505435,71 Z" transform="translate(204.252718, 91.000000) scale(-1, -1) translate(-204.252718, -91.000000) "></path>
                </g>
            </g>
            <path d="M484.241418,889.782504 C483.888387,889.871118 483.590304,889.864038 483.40633,889.700505 C483.40633,889.700505 483.873989,890.250005 483.40633,889.700505 C482.755778,888.936106 481.729013,886.932931 481.729013,886.932931 C481.729013,886.932931 481.141951,890.666928 481.141951,892.551944 C481.141951,894.245204 481.729013,897.667761 481.729013,897.667761 L480.97422,897.332298 C480.97422,897.332298 480.576562,893.653363 480.638756,892.048749 C480.716338,890.047131 481.393549,886.094272 481.393549,886.094272 C481.393549,886.094272 480.843407,883.893807 480.722622,882.739638 C480.59181,881.489652 480.638756,878.881808 480.638756,878.881808 C480.638756,878.881808 481.393549,873.514393 482.148342,871.417747 C482.366762,870.811024 481.645147,870.579088 481.645147,870.579088 C481.645147,870.579088 478.877573,870.159759 476.11,873.849857 C474.812993,875.5792 474.432683,881.984845 474.432683,881.984845 C474.432683,881.984845 474.056028,875.473931 472.168304,873.765991 C470.407121,872.172539 468.39434,873.598259 468.39434,873.598259 C468.39434,873.598259 466.794401,874.104242 466.465426,875.946503 C466.046096,878.294747 467.051818,880.93301 467.220218,881.817114 C467.77176,884.712707 471.665109,891.126224 471.665109,891.126224 C471.665109,891.126224 465.626767,885.926541 463.278523,879.04954 C460.678391,871.43487 461.014145,865.547136 461.014145,865.547136 C461.014145,865.547136 460.992106,860.459103 464.368779,854.225245 C467.639548,848.186903 472.084438,845.503195 472.084438,845.503195 L471.078048,847.348244 C471.078048,847.348244 468.480766,853.640404 468.645938,856.489623 C468.981401,862.276368 472.168304,864.121417 472.168304,864.121417 C472.168304,864.121417 475.17782,866.398858 477.11639,866.301929 C479.09156,866.20317 481.98061,865.798734 483.909525,863.534356 C488.770465,857.828035 490.115599,851.038342 489.947867,850.031952 C489.478316,847.214646 486.137708,846.869767 484.580452,847.43211 C478.54211,849.612622 477.955049,855.902562 477.955049,855.902562 L477.200256,855.231635 L477.367988,854.141379 C477.955049,850.283549 479.296903,848.522366 479.296903,848.522366 C479.296903,848.522366 480.677206,848.047377 481.058086,847.43211 C481.404043,846.873255 481.477415,845 481.477415,845 C481.477415,845 481.968331,845.912083 481.98061,846.341854 C481.996286,846.890518 481.561281,847.935305 481.561281,847.935305 L484.161123,846.761183 C484.161123,846.761183 486.690387,845.775505 487.935086,846.090256 C489.122497,846.390521 490.451062,846.174122 491.457453,848.606232 C492.018281,849.961568 491.457453,851.960867 488.186684,858.921733 C486.656769,862.177705 486.928696,863.534356 486.928696,863.534356 C486.928696,863.534356 487.230172,865.182444 489.025343,865.714868 C491.908438,866.569956 497.111591,865.921571 499.592441,861.269977 C502.860294,855.142753 497.57966,845.670927 497.57966,845.670927 C497.57966,845.670927 510.662735,853.386586 508.146759,871.585478 C507.321194,877.557063 505.709534,880.567453 503.953466,883.662162 C502.298989,886.57784 497.831258,891.126224 497.831258,891.126224 C497.831258,891.126224 502.27327,882.977912 502.947076,879.552735 C503.953466,874.436918 500.766563,873.262796 500.766563,873.262796 C500.766563,873.262796 498.334453,872.172539 496.992599,874.101454 C495.655677,876.023281 494.895953,882.068711 494.895953,882.068711 C494.895953,882.068711 494.973497,877.637025 493.889563,875.107845 C492.883172,872.7596 490.516941,870.979898 487.85122,870.495222 C486.928696,870.32749 485.335245,870.32749 485.335245,870.32749 C485.335245,870.32749 483.154732,870.74682 482.148342,875.527174 C480.966602,881.140436 481.729013,884.668553 481.729013,884.668553 C481.729013,884.668553 482.819269,881.062321 486.006172,880.726857 C487.612408,880.55778 488.190465,881.69097 488.354416,883.494431 C488.522147,885.33948 488.059319,886.642638 487.431891,887.939321 C486.173903,890.539163 487.431891,887.939321 487.431891,887.939321 C487.426484,887.95046 486.995693,888.290021 486.411143,888.679038 C486.931536,887.708106 487.348025,886.597468 487.348025,886.597468 C487.348025,886.597468 489.025343,881.146187 486.090037,881.230052 C483.154732,881.313918 482.064476,885.674943 482.064476,885.674943 C482.064476,885.674943 482.148342,886.513602 482.399939,887.100663 C482.909393,888.289387 483.593345,889.288083 484.241418,889.782504 Z" id="Ironfist" fill="#000000" mask="url(#mask-2)"></path>
        </g>
    </g>
</svg>